<?xml version="1.0"?><svg version="1.2" baseProfile="tiny-ps" viewBox="0 0 280 280" xmlns="http://www.w3.org/2000/svg" xmlns:xlink="http://www.w3.org/1999/xlink"><title>inversionesnisi</title><g><g fill="#fdfeff" transform="matrix(.1 0 0 -.1 0 280)"><path d="M0 1400V0h2800v2800H0V1400z"/></g><g fill="#c4d5e3" transform="matrix(.1 0 0 -.1 0 280)"><path d="M1260 2123v-148l139-107c77-60 142-108 145-108s6 65 6 144v145l-42 33c-24 19-72 56-107 84-35 27-78 61-96 77-18 15-35 27-39 27-3 0-6-66-6-147zm-104-130c-3-4-6-147-6-319v-313l9-5 8-6 18 20c10 11 22 20 27 20h8V670h-40v630h-7c-5 0-60-41-123-90l-115-90-5-237-5-237-138-27c-140-27-304-73-321-90l-10-9h20c10 0 105 9 209 20l190 21 365 6 365 6 205-12c191-10 400-31 486-47l37-7-5 14-4 14-110 32c-60 17-164 42-231 54l-123 22v627l-72 60c-40 33-79 60-85 60h-13V659l-17 3-18 3-3 470c-1 259-4 475-6 481-4 9-117 99-442 351-23 18-44 29-48 26zm297-887 167-129V670h-40v285l-127 99c-70 54-133 100-140 103l-13 5-2-243-3-244-17-3-18-3v582l13-8c8-4 89-66 180-137z"/></g><g fill="#88cef0" transform="matrix(.1 0 0 -.1 0 280)"><path d="M1260 2127v-133l13-15c12-15 82-71 202-162l60-45 7 125 7 126-9 17c-9 16-264 220-275 220-3 0-5-60-5-133zm-100-452v-316l22 15c12 9 26 16 30 16h8V670h-50v310c0 171-2 310-5 310-9 0-198-150-217-172l-18-20V869c0-126-1-229-3-229s-52-9-113-20c-132-24-332-79-341-93l-6-10 34 6c96 18 375 39 624 47l280 10 267-10c233-9 362-18 603-46l60-7-6 7c-11 12-209 66-319 87-58 11-115 22-127 25l-23 4-1 298c-1 163-4 307-7 320l-7 22-70 55-70 54-5-362-5-362-22-3-23-3v946l-8 11c-7 10-444 352-469 368l-13 7v-316zm380-633 85-67V665h-40l-3 142-3 142-135 106c-74 58-137 105-139 105-3 0-5-110-5-245V670h-50v288c0 159 3 291 6 295 6 6 109-71 284-211z"/></g><g fill="#819abf" transform="matrix(.1 0 0 -.1 0 280)"><path d="M1160 1674v-317l18 16c10 10 23 17 29 17h11l4-57c1-31 2-192 0-358l-3-302-114-7-114-7-53-13c-29-8-95-21-146-30-112-21-303-73-317-88l-10-10 35 6c104 17 378 38 625 46l280 10 267-10c233-9 362-18 603-46l60-7-6 7c-11 12-209 66-319 87-58 11-115 22-127 25l-23 4-1 298c-1 163-4 307-7 320l-7 22-70 55-70 54-5-362-5-362-22-3-23-3v950l-104 83c-111 88-285 224-348 271l-38 29v-318zm260-535c85-66 167-132 183-145l28-25-3-152-3-152h-40l-3 142-3 142-135 106c-74 58-137 105-139 105-3 0-5-110-5-245V670h-50v590h8c4 0 77-55 162-121z"/></g><g fill="#4a92cb" transform="matrix(.1 0 0 -.1 0 280)"><path d="M1160 1675v-305h7c3 0 15 8 25 17l18 17 10-10 10-10-2-359-3-359-100-2c-55-2-120-8-145-13s-110-23-190-40c-80-16-179-41-220-55l-75-26 55 6 200 20 145 15 355 6 355 5 195-11c187-11 453-36 495-47l20-5-16 10c-25 16-161 51-309 81l-135 27-3 316-2 316-73 57-72 56-3-361-2-362-28 3-27 3-5 477-5 477-200 157c-270 211-261 204-268 204h-7v-305zm241-517c73-57 153-119 178-138l46-36 3-163 3-162-28 3-28 3-5 144-5 145-125 98-125 97-5-234-5-234-12-12-12-12-15 6-16 6v591h10c5 0 69-46 141-102z"/></g><g fill="#314391" transform="matrix(.1 0 0 -.1 0 280)"><path d="M1700 1021V660l-62 3-63 2-5 144-5 145-125 98-125 97-5-232c-3-128-8-237-12-242l-6-10-114-3c-62-2-140-7-173-11-110-15-359-70-435-95l-75-26 40 5c22 2 119 12 215 22l175 17 450 1h450l140-13c148-14 284-29 325-37l25-5-16 9c-25 16-163 52-309 81l-135 27-3 316-2 315-63 50c-34 27-68 52-74 56l-13 7v-360z"/></g></g></svg>